<?xml version="1.0" encoding="utf-8"?>
<!-- Generator: Adobe Illustrator 19.1.0, SVG Export Plug-In . SVG Version: 6.00 Build 0)  -->
<!DOCTYPE svg PUBLIC "-//W3C//DTD SVG 1.1//EN" "http://www.w3.org/Graphics/SVG/1.1/DTD/svg11.dtd">
<svg version="1.1" id="Layer_1" xmlns="http://www.w3.org/2000/svg" xmlns:xlink="http://www.w3.org/1999/xlink" x="0px" y="0px"
	 viewBox="0 0 34 34" style="enable-background:new 0 0 34 34;" xml:space="preserve">
<style type="text/css">
	.st0{display:none;fill:#79CBEE;}
	.st1{display:none;fill:#FFFFFF;}
	.st2{fill:#547CBE;}
	.st3{fill:#FFFFFF;}
	.st4{display:none;fill:#4C4C4C;}
</style>
<rect class="st0" width="34" height="34"/>
<path class="st1" d="M25.5,12.6c-0.6,0.3-1.3,0.5-2,0.6c0.7-0.4,1.3-1.1,1.5-1.9c-0.7,0.4-1.4,0.7-2.2,0.8c-0.6-0.7-1.5-1.1-2.6-1.1
	c-1.9,0-3.5,1.6-3.5,3.5c0,0.3,0,0.5,0.1,0.8c-2.9-0.1-5.5-1.5-7.2-3.7c-0.3,0.5-0.5,1.1-0.5,1.8c0,1.2,0.6,2.3,1.6,2.9
	c-0.6,0-1.1-0.2-1.6-0.4v0c0,1.7,1.2,3.1,2.8,3.4c-0.3,0.1-0.6,0.1-0.9,0.1c-0.2,0-0.4,0-0.7-0.1c0.4,1.4,1.7,2.4,3.3,2.4
	c-1.2,0.9-2.7,1.5-4.3,1.5c-0.3,0-0.6,0-0.8,0c1.5,1,3.4,1.6,5.4,1.6c6.4,0,9.9-5.3,9.9-9.9c0-0.2,0-0.3,0-0.5
	C24.5,13.9,25.1,13.3,25.5,12.6"/>
<rect x="0.6" y="0" class="st2" width="34" height="34"/>
<path class="st3" d="M13.5,14.2h1.8v-1.7c0-0.8,0-1.9,0.6-2.6c0.6-0.8,1.4-1.3,2.7-1.3c2.2,0,3.2,0.3,3.2,0.3l-0.4,2.6
	c0,0-0.7-0.2-1.4-0.2c-0.7,0-1.3,0.2-1.3,0.9v2h2.8l-0.2,2.5h-2.6v8.8h-3.3v-8.8h-1.8V14.2z"/>
<rect x="0.4" class="st4" width="34" height="34"/>
<path class="st1" d="M14.6,24.6c-2,0-3.5-1.3-3.5-2.8c0-1.5,1.8-2.8,3.8-2.7c0.5,0,0.9,0.1,1.3,0.2c1.1,0.8,1.9,1.2,2.1,2.1
	c0,0.2,0.1,0.4,0.1,0.5C18.5,23.4,17.5,24.6,14.6,24.6 M15.2,15.6c-1.4,0-2.6-1.5-2.9-3.3c-0.2-1.8,0.7-3.1,2-3.1
	c1.4,0,2.6,1.5,2.9,3.3C17.4,14.2,16.5,15.7,15.2,15.6 M18,18.3c-0.5-0.3-1.4-1.2-1.4-1.6c0-0.6,0.2-0.8,1-1.5
	c0.9-0.7,1.5-1.6,1.5-2.8c0-1.3-0.6-2.6-1.7-3h1.7l1.2-0.9H15c-2.4,0-4.6,1.8-4.6,3.9c0,2.1,1.6,3.8,4,3.8c0.2,0,0.3,0,0.5,0
	c-0.2,0.3-0.3,0.6-0.3,1c0,0.6,0.3,1.1,0.7,1.5c-0.3,0-0.6,0-0.9,0c-2.9,0-5.2,1.9-5.2,3.8c0,1.9,2.5,3.1,5.4,3.1
	c3.3,0,5.2-1.9,5.2-3.8C19.8,20.2,19.4,19.2,18,18.3 M25.6,15.8h-2.1v-2.1h-1.7v2.1h-2.1v1.7h2.1v2.1h1.7v-2.1h2.1V15.8z"/>
<g>
</g>
<g>
</g>
<g>
</g>
<g>
</g>
<g>
</g>
<g>
</g>
</svg>
