<svg xmlns="http://www.w3.org/2000/svg" viewBox="0 0 693.4 693.4" enable-background="new 0 0 693.4 693.4"><style type="text/css">.st0{opacity:0.1;fill:none;stroke:#000000;stroke-width:3;stroke-miterlimit:10;}</style><path class="st0" d="M1.5 1.5h69v69h-69zm69 0h69v69h-69zm69.1 0h69v69h-69zm69 0h69v69h-69zm69.1 0h69v69h-69zm69 0h69v69h-69zm69 0h69v69h-69zm69.1 0h69v69h-69zm69 0h69v69h-69zm69.1 0h69v69h-69zm-621.4 69h69v69h-69zm69 0h69v69h-69zm69.1 0h69v69h-69zm69 0h69v69h-69zm69.1 0h69v69h-69zm69 0h69v69h-69zm69 0h69v69h-69zm69.1 0h69v69h-69zm69 0h69v69h-69zm69.1 0h69v69h-69zm-621.4 69.1h69v69h-69zm69 0h69v69h-69zm69.1 0h69v69h-69zm69 0h69v69h-69zm69.1 0h69v69h-69zm69 0h69v69h-69zm69 0h69v69h-69zm69.1 0h69v69h-69zm69 0h69v69h-69zm69.1 0h69v69h-69zm-621.4 69h69v69h-69zm69 0h69v69h-69zm69.1 0h69v69h-69zm69 0h69v69h-69zm69.1 0h69v69h-69zm69 0h69v69h-69zm69 0h69v69h-69zm69.1 0h69v69h-69zm69 0h69v69h-69zm69.1 0h69v69h-69zm-621.4 69.1h69v69h-69zm69 0h69v69h-69zm69.1 0h69v69h-69zm69 0h69v69h-69zm69.1 0h69v69h-69zm69 0h69v69h-69zm69 0h69v69h-69zm69.1 0h69v69h-69zm69 0h69v69h-69zm69.1 0h69v69h-69zm-621.4 69h69v69h-69zm69 0h69v69h-69zm69.1 0h69v69h-69zm69 0h69v69h-69zm69.1 0h69v69h-69zm69 0h69v69h-69zm69 0h69v69h-69zm69.1 0h69v69h-69zm69 0h69v69h-69zm69.1 0h69v69h-69zm-621.4 69h69v69h-69zm69 0h69v69h-69zm69.1 0h69v69h-69zm69 0h69v69h-69zm69.1 0h69v69h-69zm69 0h69v69h-69zm69 0h69v69h-69zm69.1 0h69v69h-69zm69 0h69v69h-69zm69.1 0h69v69h-69zm-621.4 69.1h69v69h-69zm69 0h69v69h-69zm69.1 0h69v69h-69zm69 0h69v69h-69zm69.1 0h69v69h-69zm69 0h69v69h-69zm69 0h69v69h-69zm69.1 0h69v69h-69zm69 0h69v69h-69zm69.1 0h69v69h-69zm-621.4 69h69v69h-69zm69 0h69v69h-69zm69.1 0h69v69h-69zm69 0h69v69h-69zm69.1 0h69v69h-69zm69 0h69v69h-69zm69 0h69v69h-69zm69.1 0h69v69h-69zm69 0h69v69h-69zm69.1 0h69v69h-69zm-621.4 69.1h69v69h-69zm69 0h69v69h-69zm69.1 0h69v69h-69zm69 0h69v69h-69zm69.1 0h69v69h-69zm69 0h69v69h-69zm69 0h69v69h-69zm69.1 0h69v69h-69zm69 0h69v69h-69zm69.1 0h69v69h-69z"/></svg>